<?xml version="1.0" encoding="UTF-8" standalone="no"?>
<!-- Created with Inkscape (http://www.inkscape.org/) -->

<svg
   width="66.244919mm"
   height="53.986221mm"
   viewBox="0 0 66.244917 53.986221"
   version="1.1"
   id="svg1"
   xml:space="preserve"
   xmlns="http://www.w3.org/2000/svg"
   xmlns:svg="http://www.w3.org/2000/svg" fill="#ffffff"><defs
     id="defs1"><rect
       x="45.700161"
       y="1141.1982"
       width="57.45163"
       height="267.67236"
       id="rect1" /></defs><g
     id="layer1"
     transform="translate(-67.570217,-159.09829)"><text
       xml:space="preserve"
       transform="scale(0.26458333)"
       id="text1"
       style="font-style:normal;font-variant:normal;font-weight:bold;font-stretch:normal;font-size:21.3333px;font-family:Inter;-inkscape-font-specification:'Inter Bold';text-align:start;writing-mode:lr-tb;direction:ltr;white-space:pre;shape-inside:url(#rect1);display:inline;fill:none;stroke-width:9.44882" /><g
       id="g6"
       transform="translate(4.9683343,4.0489368)"><g
         style="fill:none;stroke:#ffffff;stroke-width:2;stroke-linecap:round;stroke-linejoin:round"
         id="g1"
         transform="matrix(1.0619462,0,0,1.0619462,82.981153,156.9855)"><path
           d="m 16,7 h 0.01"
           id="path1" /><path
           d="M 3.4,18 H 12 a 8,8 0 0 0 8,-8 V 7 A 4,4 0 0 0 12.72,4.7 L 2,20"
           id="path2" /><path
           d="M 20,7 22,7.5 20,8"
           id="path3" /><path
           d="m 10,18 v 3"
           id="path4" /><path
           d="M 14,17.75 V 21"
           id="path5" /><path
           d="M 7,18 A 6,6 0 0 0 10.84,7.39"
           id="path6" /></g><g
         id="g3"
         transform="matrix(0.85000108,0,0,0.85000108,7.3765032,42.965041)"><g
           id="g4"><g
             id="g5"
             transform="translate(0,-0.47461807)"><path
               style="font-weight:600;font-size:16.9333px;font-family:Inter;-inkscape-font-specification:'Inter Semi-Bold';stroke-width:2.52023"
               d="m 74.139865,179.1442 -3.323821,-12.31964 h 2.306831 l 1.628838,6.63937 q 0.173633,0.71107 0.322461,1.42214 0.148827,0.70279 0.289387,1.40559 0.14056,0.7028 0.272851,1.41387 h -0.396874 q 0.140559,-0.71107 0.281119,-1.41387 0.148828,-0.7028 0.305924,-1.40559 0.165364,-0.71107 0.338997,-1.42214 l 1.694983,-6.63937 h 2.306832 l 1.678447,6.63937 q 0.181901,0.71107 0.338997,1.42214 0.165364,0.70279 0.314192,1.40559 0.148828,0.7028 0.289387,1.41387 h -0.41341 q 0.132291,-0.71107 0.272851,-1.41387 0.140559,-0.7028 0.297655,-1.40559 0.157096,-0.71107 0.322461,-1.42214 l 1.628837,-6.63937 h 2.3151 l -3.33209,12.31964 h -2.472195 l -1.885153,-7.1272 q -0.198437,-0.76895 -0.388606,-1.63711 -0.181901,-0.87643 -0.405142,-1.90996 h 0.562238 q -0.223242,1.03353 -0.405142,1.90996 -0.181901,0.86816 -0.388606,1.63711 l -1.876885,7.1272 z m 16.189161,-4.93613 v 4.93613 h -2.083589 v -12.31964 h 2.083589 v 5.81255 h -0.438215 q 0.421679,-1.17408 1.182355,-1.78593 0.768943,-0.61185 1.901689,-0.61185 0.917771,0 1.620569,0.39687 0.702798,0.38861 1.099673,1.15755 0.396874,0.76895 0.396874,1.89343 v 5.45702 h -2.091858 v -5.1263 q 0,-0.95911 -0.46302,-1.4552 -0.454752,-0.49609 -1.298109,-0.49609 -0.545702,0 -0.975649,0.22324 -0.429948,0.22324 -0.686262,0.69453 -0.248047,0.47129 -0.248047,1.22369 z m 7.615025,4.93613 v -8.73124 h 2.083589 v 8.73124 z m 1.041795,-10.02935 q -0.537434,0 -0.892967,-0.33899 -0.355533,-0.34727 -0.355533,-0.85163 0,-0.50436 0.355533,-0.84336 0.355533,-0.33899 0.884699,-0.33899 0.537433,0 0.892967,0.33899 0.355535,0.339 0.355535,0.85163 0,0.50436 -0.355535,0.84336 -0.355534,0.33899 -0.884699,0.33899 z m 6.316914,10.23605 q -1.05833,0 -1.90169,-0.33073 -0.84336,-0.33899 -1.35599,-0.98391 -0.51263,-0.65319 -0.57877,-1.5875 h 2.05878 q 0.0661,0.63665 0.51263,0.99218 0.45476,0.34727 1.23197,0.34727 0.7524,0 1.18235,-0.29766 0.43822,-0.29765 0.43822,-0.76067 0,-0.39688 -0.32246,-0.63666 -0.3142,-0.23977 -0.86817,-0.35553 l -1.48827,-0.30592 q -1.25677,-0.26458 -1.90169,-0.90124 -0.64492,-0.63665 -0.64492,-1.62057 0,-0.80201 0.42994,-1.40559 0.43822,-0.60358 1.2237,-0.94258 0.79375,-0.339 1.86035,-0.339 1.05833,0 1.86034,0.35554 0.81029,0.35553 1.26504,1.00872 0.46302,0.64492 0.48783,1.54615 h -1.95957 q -0.008,-0.58704 -0.45475,-0.96738 -0.43822,-0.38033 -1.14928,-0.38033 -0.68627,0 -1.08314,0.30592 -0.39687,0.30592 -0.39687,0.75241 0,0.3886 0.30592,0.63665 0.30592,0.23978 0.85163,0.3638 l 1.57096,0.32246 q 1.29811,0.27285 1.90995,0.8599 0.62012,0.58704 0.62012,1.54615 0,0.85163 -0.47956,1.48001 -0.47129,0.62012 -1.30637,0.95911 -0.83509,0.339 -1.91823,0.339 z m 5.12629,3.24941 v -12.18735 h 2.05052 v 1.21543 h 0.0248 q 0.27286,-0.46302 0.678,-0.76894 0.40514,-0.3142 0.90123,-0.46302 0.50436,-0.1571 1.0666,-0.1571 1.13275,0 1.97611,0.57051 0.85162,0.5705 1.32291,1.59576 0.47129,1.02526 0.47129,2.36471 0,1.35599 -0.47129,2.38125 -0.46302,1.02525 -1.31465,1.59576 -0.85162,0.57051 -1.99264,0.57051 -0.5705,0 -1.05833,-0.16537 -0.48782,-0.16536 -0.8847,-0.49609 -0.3886,-0.33073 -0.66145,-0.82682 h -0.0248 v 4.77076 z m 4.22506,-5.02707 q 0.64492,0 1.12448,-0.32247 0.48782,-0.32246 0.76067,-0.95084 0.27285,-0.62838 0.27285,-1.52962 0,-0.90123 -0.27285,-1.52135 -0.27285,-0.62838 -0.76067,-0.95084 -0.47956,-0.33073 -1.12448,-0.33073 -0.68626,0 -1.19062,0.34726 -0.50436,0.34727 -0.78548,0.97565 -0.28112,0.62839 -0.28112,1.48001 0,0.85163 0.28112,1.48828 0.28112,0.62838 0.78548,0.97565 0.50436,0.339 1.19062,0.339 z m 9.56632,1.76939 q -1.30638,0 -2.26549,-0.58704 -0.95911,-0.58704 -1.48001,-1.6123 -0.51263,-1.03353 -0.51263,-2.35644 0,-1.33118 0.52917,-2.36471 0.53743,-1.03353 1.48001,-1.62057 0.94257,-0.58704 2.16627,-0.58704 0.94257,0 1.71152,0.33072 0.76894,0.33073 1.32291,0.94258 0.55397,0.60358 0.85163,1.43867 0.29765,0.82682 0.29765,1.82727 v 0.57051 h -7.53234 v -1.43867 h 6.49055 l -0.93431,0.38861 q 0,-0.74414 -0.27285,-1.28157 -0.26458,-0.53744 -0.75241,-0.82683 -0.47955,-0.29765 -1.14928,-0.29765 -0.66146,0 -1.14928,0.29765 -0.48783,0.28939 -0.75241,0.82683 -0.26458,0.53743 -0.26458,1.28157 v 0.90123 q 0,0.75241 0.26458,1.32292 0.26458,0.5705 0.76895,0.8847 0.51262,0.31419 1.23196,0.31419 0.5209,0 0.92604,-0.1571 0.40514,-0.15709 0.67799,-0.43821 0.27285,-0.28112 0.38861,-0.65319 h 1.9513 q -0.16537,0.85162 -0.72761,1.50481 -0.55397,0.65319 -1.39732,1.02526 -0.84336,0.3638 -1.86862,0.3638 z m 5.5149,-0.19843 v -8.73124 h 2.00917 v 1.44694 h 0.0248 q 0.23978,-0.75241 0.75241,-1.14101 0.52089,-0.38861 1.36425,-0.38861 0.21497,0 0.38034,0.008 0.17363,0.008 0.29765,0.0248 v 1.85208 q -0.10748,-0.0165 -0.3886,-0.0413 -0.28112,-0.0248 -0.59531,-0.0248 -0.48783,0 -0.89297,0.23151 -0.39687,0.22324 -0.63665,0.67799 -0.23151,0.45475 -0.23151,1.14101 v 4.9444 z m 6.04406,0.14882 q -0.52916,0 -0.9095,-0.37207 -0.37207,-0.38033 -0.37207,-0.9095 0,-0.53743 0.37207,-0.9095 0.38034,-0.37207 0.9095,-0.37207 0.53744,0 0.90951,0.37207 0.37206,0.37207 0.37206,0.9095 0,0.52917 -0.37206,0.9095 -0.37207,0.37207 -0.90951,0.37207 z"
               id="text2"
               aria-label="Whisper." /><path
               style="font-weight:500;font-size:5.60493px;font-family:Inter;-inkscape-font-specification:'Inter Medium';stroke-width:2.5"
               d="m 71.689997,186.39984 v -0.53368 h 3.204772 v 0.53368 h -1.294498 v 3.54413 h -0.610302 v -3.54413 z m 3.923456,3.59066 q -0.287362,0 -0.514515,-0.0985 -0.224416,-0.0985 -0.355782,-0.29283 -0.131366,-0.19432 -0.131366,-0.48168 0,-0.24631 0.09305,-0.40504 0.09579,-0.15874 0.257258,-0.25179 0.16147,-0.0931 0.366728,-0.13957 0.205259,-0.0493 0.424202,-0.0739 0.273678,-0.0356 0.429674,-0.0547 0.158734,-0.0219 0.224417,-0.0657 0.06842,-0.0465 0.06842,-0.15053 v -0.0246 q 0,-0.13957 -0.06842,-0.24631 -0.06842,-0.10947 -0.199786,-0.17242 -0.131365,-0.0629 -0.314729,-0.0629 -0.183365,0 -0.325678,0.0602 -0.139575,0.0602 -0.224416,0.16694 -0.0821,0.104 -0.09305,0.2381 h -0.566514 q 0.01368,-0.27641 0.166944,-0.48715 0.153259,-0.21073 0.421464,-0.33115 0.268205,-0.12041 0.62946,-0.12041 0.265468,0 0.478937,0.0684 0.213469,0.0684 0.361255,0.19705 0.150523,0.1259 0.227153,0.30379 0.07937,0.17789 0.07937,0.39683 v 1.98143 h -0.569251 v -0.41052 h -0.01095 q -0.06021,0.11768 -0.164207,0.22168 -0.103998,0.104 -0.273678,0.16968 -0.166944,0.0657 -0.415991,0.0657 z m 0.117681,-0.46526 q 0.254521,0 0.418728,-0.0903 0.166944,-0.0931 0.24631,-0.24358 0.0821,-0.15052 0.0821,-0.32841 v -0.33936 q -0.0301,0.0246 -0.09852,0.0465 -0.06568,0.0191 -0.16147,0.0383 -0.09579,0.0164 -0.207996,0.0356 -0.112208,0.0192 -0.224416,0.0328 -0.158733,0.0219 -0.295572,0.0739 -0.13684,0.0493 -0.22168,0.13958 -0.0821,0.0903 -0.0821,0.2381 0,0.12315 0.06568,0.21347 0.06568,0.0876 0.188837,0.13684 0.123156,0.0465 0.290099,0.0465 z m 2.545208,-3.65908 v 4.07781 h -0.577461 v -4.07781 z m 1.185026,3.10625 v -0.68419 h 0.052 l 1.231552,-1.23429 h 0.717037 l -1.373864,1.39576 h -0.09031 z m -0.533672,0.97156 v -4.07781 h 0.577461 v 4.07781 z m 1.907537,0 -1.089239,-1.36565 0.396833,-0.40231 1.401233,1.76796 z m 3.752128,-2.89004 v 0.4762 H 82.90424 v -0.4762 z m -1.165869,2.89004 v -3.35803 q 0,-0.22989 0.09579,-0.38863 0.09852,-0.16147 0.281889,-0.24631 0.183364,-0.0848 0.443359,-0.0848 0.112208,0 0.210732,0 0.101261,0 0.134102,0 v 0.4762 q -0.02737,0 -0.114945,0 -0.08758,0 -0.142312,0 -0.177891,0 -0.254521,0.0794 -0.07663,0.0766 -0.07663,0.25726 v 3.26498 z m 1.601018,0 v -2.89004 h 0.55283 v 0.46799 h 0.01095 q 0.07937,-0.2381 0.249047,-0.36947 0.172417,-0.1341 0.448832,-0.1341 0.06568,0 0.120419,0.005 0.05747,0.003 0.09031,0.008 v 0.53915 q -0.03284,-0.008 -0.117682,-0.0164 -0.08484,-0.0109 -0.186101,-0.0109 -0.16147,0 -0.29831,0.0739 -0.134102,0.0739 -0.213469,0.22716 -0.07937,0.15326 -0.07937,0.39136 v 1.70775 z m 3.091473,0.0657 q -0.429675,0 -0.738931,-0.19431 -0.30652,-0.19431 -0.473464,-0.53367 -0.164207,-0.3421 -0.164207,-0.77725 0,-0.44336 0.172418,-0.78272 0.172417,-0.3421 0.4762,-0.53641 0.303783,-0.19705 0.697879,-0.19705 0.30652,0 0.55283,0.10948 0.249047,0.10947 0.426938,0.31199 0.177891,0.19978 0.273679,0.4762 0.09579,0.27641 0.09579,0.61304 v 0.156 h -2.435736 v -0.43789 h 2.131953 l -0.254521,0.1341 q 0,-0.2682 -0.09579,-0.46525 -0.09579,-0.19979 -0.273678,-0.30652 -0.175154,-0.10947 -0.415991,-0.10947 -0.2381,0 -0.413254,0.10947 -0.175154,0.10673 -0.273678,0.30652 -0.09579,0.19705 -0.09579,0.46525 v 0.24905 q 0,0.27368 0.09579,0.48441 0.09579,0.208 0.276415,0.32568 0.183364,0.11768 0.443358,0.11768 0.188838,0 0.333888,-0.0575 0.145049,-0.0602 0.240837,-0.16421 0.09579,-0.104 0.136839,-0.24084 h 0.555566 q -0.052,0.27915 -0.232626,0.49262 -0.177891,0.21074 -0.448832,0.33115 -0.268205,0.12042 -0.593882,0.12042 z m 3.051513,0 q -0.429675,0 -0.738932,-0.19431 -0.306519,-0.19431 -0.473463,-0.53367 -0.164207,-0.3421 -0.164207,-0.77725 0,-0.44336 0.172417,-0.78272 0.172418,-0.3421 0.476201,-0.53641 0.303782,-0.19705 0.697879,-0.19705 0.30652,0 0.55283,0.10948 0.249047,0.10947 0.426938,0.31199 0.177891,0.19978 0.273678,0.4762 0.09579,0.27641 0.09579,0.61304 v 0.156 H 90.04889 v -0.43789 h 2.131954 l -0.254521,0.1341 q 0,-0.2682 -0.09579,-0.46525 -0.09579,-0.19979 -0.273679,-0.30652 -0.175154,-0.10947 -0.41599,-0.10947 -0.2381,0 -0.413255,0.10947 -0.175154,0.10673 -0.273678,0.30652 -0.09579,0.19705 -0.09579,0.46525 v 0.24905 q 0,0.27368 0.09579,0.48441 0.09579,0.208 0.276415,0.32568 0.183365,0.11768 0.443359,0.11768 0.188838,0 0.333887,-0.0575 0.14505,-0.0602 0.240837,-0.16421 0.09579,-0.104 0.136839,-0.24084 h 0.555567 q -0.052,0.27915 -0.232626,0.49262 -0.177891,0.21074 -0.448833,0.33115 -0.268204,0.12042 -0.593881,0.12042 z m 2.394684,-4.14349 v 4.07781 h -0.577461 v -4.07781 z m 0.721966,5.22178 v -0.48714 h 0.311993 q 0.09305,0 0.158733,-0.0356 0.06568,-0.0328 0.117682,-0.10674 0.05474,-0.0739 0.09852,-0.18883 l 0.131366,-0.34484 -1.116607,-2.87088 h 0.618512 l 0.577461,1.58459 q 0.07937,0.22442 0.15326,0.44884 0.07663,0.22168 0.14505,0.44609 h -0.155997 q 0.06842,-0.22441 0.142313,-0.44609 0.07663,-0.22442 0.155996,-0.44884 l 0.569251,-1.58459 h 0.610302 l -1.313655,3.39634 q -0.0821,0.21074 -0.202522,0.35031 -0.120418,0.14232 -0.279152,0.21347 -0.158733,0.0739 -0.355781,0.0739 -0.09031,0 -0.183365,0 -0.09305,0 -0.183364,0 z m 2.850636,-1.09744 q -0.158734,0 -0.270942,-0.10948 -0.109471,-0.1122 -0.109471,-0.27367 0,-0.16147 0.109471,-0.27095 0.112208,-0.1122 0.270942,-0.1122 0.16147,0 0.270941,0.1122 0.112208,0.10948 0.112208,0.27095 0,0.16147 -0.112208,0.27367 -0.109471,0.10948 -0.270941,0.10948 z m 2.050181,-3.59066 v -0.53368 h 3.204777 v 0.53368 h -1.2945 v 3.54413 h -0.61031 v -3.54413 z m 4.239277,1.88017 v 1.66396 h -0.57746 v -4.07781 h 0.57746 v 1.9048 h -0.14505 q 0.14231,-0.38862 0.3941,-0.58019 0.25452,-0.19431 0.61303,-0.19431 0.29831,0 0.53368,0.13136 0.2381,0.12863 0.37494,0.38315 0.13684,0.25452 0.13684,0.6322 v 1.8008 h -0.57747 v -1.72965 q 0,-0.34757 -0.16694,-0.52272 -0.16421,-0.17789 -0.46525,-0.17789 -0.19705,0 -0.35578,0.0794 -0.156,0.0794 -0.24905,0.24905 -0.093,0.16968 -0.093,0.43789 z m 2.55889,1.66396 v -2.89004 h 0.57746 v 2.89004 z m 0.28736,-3.38814 q -0.15326,0 -0.25999,-0.10126 -0.104,-0.104 -0.104,-0.25178 0,-0.15052 0.104,-0.25179 0.10673,-0.10399 0.25999,-0.10399 0.15326,0 0.26,0.10399 0.10673,0.10127 0.10673,0.25179 0,0.14778 -0.10673,0.25178 -0.10674,0.10126 -0.26,0.10126 z m 1.51892,1.72418 v 1.66396 h -0.57746 v -2.89004 h 0.56651 v 0.71703 h -0.1341 q 0.14231,-0.38862 0.3941,-0.58019 0.25452,-0.19431 0.61303,-0.19431 0.29831,0 0.53368,0.13136 0.2381,0.12863 0.37494,0.38315 0.13684,0.25452 0.13684,0.6322 v 1.8008 h -0.57747 v -1.72965 q 0,-0.34757 -0.16694,-0.52272 -0.16421,-0.17789 -0.46525,-0.17789 -0.19705,0 -0.35578,0.0794 -0.156,0.0794 -0.24905,0.24905 -0.0931,0.16968 -0.0931,0.43789 z m 3.09256,0.6924 v -0.68419 h 0.052 l 1.23155,-1.23429 h 0.71704 l -1.37387,1.39576 h -0.0903 z m -0.53367,0.97156 v -4.07781 h 0.57746 v 4.07781 z m 1.90754,0 -1.08924,-1.36565 0.39683,-0.40231 1.40123,1.76796 z m 2.35089,1.14397 v -4.03401 h 0.56651 v 0.41599 h 0.008 q 0.0903,-0.15873 0.22716,-0.26273 0.13957,-0.104 0.30925,-0.156 0.17242,-0.0547 0.35852,-0.0547 0.37494,0 0.65409,0.19157 0.28189,0.18884 0.43789,0.5282 0.15873,0.33662 0.15873,0.78272 0,0.44609 -0.156,0.78546 -0.15599,0.33662 -0.43788,0.52819 -0.28189,0.18884 -0.65956,0.18884 -0.18611,0 -0.35305,-0.0547 -0.16421,-0.0547 -0.29831,-0.16421 -0.1341,-0.10947 -0.22989,-0.27368 h -0.008 v 1.57912 z m 1.34923,-1.58459 q 0.23537,0 0.41052,-0.11495 0.17515,-0.11768 0.27368,-0.33936 0.10126,-0.22441 0.10126,-0.55009 0,-0.32842 -0.10126,-0.55283 -0.0985,-0.22442 -0.27368,-0.33936 -0.17515,-0.11495 -0.41052,-0.11495 -0.24631,0 -0.42967,0.12589 -0.18063,0.12316 -0.28189,0.35031 -0.0985,0.22442 -0.0985,0.53094 0,0.30104 0.0985,0.5282 0.10126,0.22715 0.28189,0.35304 0.18336,0.12316 0.42967,0.12316 z m 1.88017,0.44062 v -2.89004 h 0.55283 v 0.46799 h 0.0109 q 0.0794,-0.2381 0.24905,-0.36947 0.17242,-0.1341 0.44883,-0.1341 0.0657,0 0.12042,0.005 0.0575,0.003 0.0903,0.008 v 0.53915 q -0.0328,-0.008 -0.11768,-0.0164 -0.0848,-0.0109 -0.1861,-0.0109 -0.16147,0 -0.29831,0.0739 -0.1341,0.0739 -0.21347,0.22716 -0.0794,0.15326 -0.0794,0.39136 v 1.70775 z m 1.91192,0 v -2.89004 h 0.57746 v 2.89004 z m 0.28737,-3.38814 q -0.15326,0 -0.26,-0.10126 -0.104,-0.104 -0.104,-0.25178 0,-0.15052 0.104,-0.25179 0.10674,-0.10399 0.26,-0.10399 0.15325,0 0.25999,0.10399 0.10673,0.10127 0.10673,0.25179 0,0.14778 -0.10673,0.25178 -0.10674,0.10126 -0.25999,0.10126 z m 1.78164,3.38814 -1.10018,-2.89004 h 0.61851 l 0.57472,1.58459 q 0.0794,0.22442 0.15053,0.44884 0.0739,0.22168 0.14505,0.44609 h -0.13958 q 0.0712,-0.22441 0.14231,-0.44609 0.0712,-0.22442 0.14779,-0.44884 l 0.56651,-1.58459 h 0.6103 l -1.10292,2.89004 z m 2.90154,0.0465 q -0.28737,0 -0.51452,-0.0985 -0.22442,-0.0985 -0.35578,-0.29283 -0.13137,-0.19432 -0.13137,-0.48168 0,-0.24631 0.0931,-0.40504 0.0958,-0.15874 0.25726,-0.25179 0.16147,-0.0931 0.36673,-0.13957 0.20526,-0.0493 0.4242,-0.0739 0.27368,-0.0356 0.42968,-0.0547 0.15873,-0.0219 0.22441,-0.0657 0.0684,-0.0465 0.0684,-0.15053 v -0.0246 q 0,-0.13957 -0.0684,-0.24631 -0.0684,-0.10947 -0.19978,-0.17242 -0.13137,-0.0629 -0.31473,-0.0629 -0.18337,0 -0.32568,0.0602 -0.13958,0.0602 -0.22442,0.16694 -0.0821,0.104 -0.0931,0.2381 h -0.56651 q 0.0137,-0.27641 0.16694,-0.48715 0.15326,-0.21073 0.42147,-0.33115 0.2682,-0.12041 0.62946,-0.12041 0.26547,0 0.47893,0.0684 0.21347,0.0684 0.36126,0.19705 0.15052,0.1259 0.22715,0.30379 0.0794,0.17789 0.0794,0.39683 v 1.98143 h -0.56925 v -0.41052 h -0.0109 q -0.0602,0.11768 -0.16421,0.22168 -0.10399,0.104 -0.27367,0.16968 -0.16695,0.0657 -0.41599,0.0657 z m 0.11768,-0.46526 q 0.25452,0 0.41872,-0.0903 0.16695,-0.0931 0.24631,-0.24358 0.0821,-0.15052 0.0821,-0.32841 v -0.33936 q -0.0301,0.0246 -0.0985,0.0465 -0.0657,0.0191 -0.16147,0.0383 -0.0958,0.0164 -0.20799,0.0356 -0.11221,0.0192 -0.22442,0.0328 -0.15873,0.0219 -0.29557,0.0739 -0.13684,0.0493 -0.22168,0.13958 -0.0821,0.0903 -0.0821,0.2381 0,0.12315 0.0657,0.21347 0.0657,0.0876 0.18884,0.13684 0.12315,0.0465 0.2901,0.0465 z m 3.36076,-2.47131 v 0.4762 h -1.67491 v -0.4762 z m -1.16586,-0.7882 h 0.57746 v 2.91468 q 0,0.15873 0.0657,0.22441 0.0684,0.063 0.24084,0.063 0.0657,0 0.14505,0 0.0794,0 0.13683,0 v 0.4762 q -0.0712,0 -0.17241,0 -0.0985,0 -0.19158,0 -0.40778,0 -0.60483,-0.16968 -0.19704,-0.17242 -0.19704,-0.51999 z m 2.80739,3.74392 q -0.42968,0 -0.73893,-0.19431 -0.30652,-0.19431 -0.47346,-0.53367 -0.16421,-0.3421 -0.16421,-0.77725 0,-0.44336 0.17242,-0.78272 0.17241,-0.3421 0.4762,-0.53641 0.30378,-0.19705 0.69787,-0.19705 0.30652,0 0.55283,0.10948 0.24905,0.10947 0.42694,0.31199 0.17789,0.19978 0.27368,0.4762 0.0958,0.27641 0.0958,0.61304 v 0.156 h -2.43574 v -0.43789 h 2.13196 l -0.25453,0.1341 q 0,-0.2682 -0.0958,-0.46525 -0.0958,-0.19979 -0.27368,-0.30652 -0.17515,-0.10947 -0.41599,-0.10947 -0.2381,0 -0.41326,0.10947 -0.17515,0.10673 -0.27367,0.30652 -0.0958,0.19705 -0.0958,0.46525 v 0.24905 q 0,0.27368 0.0958,0.48441 0.0958,0.208 0.27641,0.32568 0.18337,0.11768 0.44336,0.11768 0.18884,0 0.33389,-0.0575 0.14505,-0.0602 0.24083,-0.16421 0.0958,-0.104 0.13684,-0.24084 h 0.55557 q -0.052,0.27915 -0.23263,0.49262 -0.17789,0.21074 -0.44883,0.33115 -0.2682,0.12042 -0.59388,0.12042 z m 2.39469,-4.14349 v 4.07781 h -0.57747 v -4.07781 z m 0.72196,5.22178 v -0.48714 h 0.31199 q 0.0931,0 0.15874,-0.0356 0.0657,-0.0328 0.11768,-0.10674 0.0547,-0.0739 0.0985,-0.18883 l 0.13137,-0.34484 -1.11661,-2.87088 h 0.61852 l 0.57746,1.58459 q 0.0794,0.22442 0.15326,0.44884 0.0766,0.22168 0.14505,0.44609 h -0.156 q 0.0684,-0.22441 0.14231,-0.44609 0.0766,-0.22442 0.156,-0.44884 l 0.56925,-1.58459 h 0.6103 l -1.31365,3.39634 q -0.0821,0.21074 -0.20253,0.35031 -0.12041,0.14232 -0.27915,0.21347 -0.15873,0.0739 -0.35578,0.0739 -0.0903,0 -0.18336,0 -0.0931,0 -0.18337,0 z m 2.85064,-1.09744 q -0.15874,0 -0.27094,-0.10948 -0.10948,-0.1122 -0.10948,-0.27367 0,-0.16147 0.10948,-0.27095 0.1122,-0.1122 0.27094,-0.1122 0.16147,0 0.27094,0.1122 0.11221,0.10948 0.11221,0.27095 0,0.16147 -0.11221,0.27367 -0.10947,0.10948 -0.27094,0.10948 z"
               id="text4"
               aria-label="Talk freely. Think privately." /></g></g></g></g></g></svg>
